<svg xmlns="http://www.w3.org/2000/svg" viewBox="0 0 192 192" role="img" aria-label="MyDailyWin">
  <defs>
    <linearGradient id="bg" x1="24" y1="24" x2="168" y2="168" gradientUnits="userSpaceOnUse">
      <stop offset="0" stop-color="#58cc02"/>
      <stop offset="0.58" stop-color="#46a302"/>
      <stop offset="1" stop-color="#2f7d00"/>
    </linearGradient>
    <linearGradient id="gold" x1="62" y1="48" x2="140" y2="150" gradientUnits="userSpaceOnUse">
      <stop offset="0" stop-color="#ffe066"/>
      <stop offset="0.5" stop-color="#ffb703"/>
      <stop offset="1" stop-color="#fb8500"/>
    </linearGradient>
    <filter id="shadow" x="-20%" y="-20%" width="140%" height="140%">
      <feDropShadow dx="0" dy="10" stdDeviation="8" flood-color="#145000" flood-opacity="0.22"/>
    </filter>
  </defs>
  <rect width="192" height="192" rx="42" fill="#f4ffe8"/>
  <rect x="18" y="18" width="156" height="156" rx="36" fill="url(#bg)"/>
  <rect x="50" y="42" width="92" height="110" rx="22" fill="#ffffff" filter="url(#shadow)"/>
  <path d="M75 39h42a13 13 0 0 1 13 13v8H62v-8a13 13 0 0 1 13-13Z" fill="url(#gold)"/>
  <path d="m72 91 14 14 34-39" fill="none" stroke="#46a302" stroke-width="13" stroke-linecap="round" stroke-linejoin="round"/>
  <path d="M70 126h52" stroke="#d9f99d" stroke-width="12" stroke-linecap="round"/>
  <path d="M136 100 143 115 160 117 148 129 151 146 136 138 121 146 124 129 112 117 129 115Z" fill="url(#gold)" stroke="#fff8d6" stroke-width="4" stroke-linejoin="round"/>
</svg>
