<svg xmlns="http://www.w3.org/2000/svg" viewBox="0 0 192 192" role="img" aria-label="Partake">
  <defs>
    <linearGradient id="bg" x1="24" y1="24" x2="168" y2="168" gradientUnits="userSpaceOnUse">
      <stop offset="0" stop-color="#FEF3C7"/>
      <stop offset="0.55" stop-color="#FDE047"/>
      <stop offset="1" stop-color="#EAB308"/>
    </linearGradient>
    <linearGradient id="receipt" x1="54" y1="42" x2="138" y2="150" gradientUnits="userSpaceOnUse">
      <stop offset="0" stop-color="#ffffff"/>
      <stop offset="1" stop-color="#fff8e1"/>
    </linearGradient>
  </defs>
  <rect width="192" height="192" rx="42" fill="#fff8e1"/>
  <rect x="18" y="18" width="156" height="156" rx="36" fill="url(#bg)"/>
  <path d="M58 42h76a8 8 0 0 1 8 8v96l-15-9-15 9-16-9-16 9-15-9-15 9V50a8 8 0 0 1 8-8Z" fill="url(#receipt)"/>
  <path d="M74 72h44M74 95h44M74 118h24" fill="none" stroke="#A16207" stroke-width="8" stroke-linecap="round"/>
  <circle cx="122" cy="119" r="24" fill="#A16207"/>
  <path d="m110 119 9 9 17-21" fill="none" stroke="#ffffff" stroke-width="8" stroke-linecap="round" stroke-linejoin="round"/>
</svg>
