<svg xmlns="http://www.w3.org/2000/svg" viewBox="0 0 192 192" role="img" aria-label="Partake">
  <defs>
    <linearGradient id="bg" x1="24" y1="24" x2="168" y2="168" gradientUnits="userSpaceOnUse">
      <stop offset="0" stop-color="#0f172a"/>
      <stop offset="1" stop-color="#064e3b"/>
    </linearGradient>
    <linearGradient id="mint" x1="54" y1="42" x2="138" y2="150" gradientUnits="userSpaceOnUse">
      <stop offset="0" stop-color="#a7f3d0"/>
      <stop offset="1" stop-color="#34d399"/>
    </linearGradient>
  </defs>
  <rect width="192" height="192" rx="42" fill="#ecfdf5"/>
  <rect x="18" y="18" width="156" height="156" rx="36" fill="url(#bg)"/>
  <path d="M60 44h72a8 8 0 0 1 8 8v90l-14-8-14 8-14-8-14 8-14-8-14 8V52a8 8 0 0 1 8-8Z" fill="url(#mint)"/>
  <path d="M76 72h40M76 96h40M76 120h24" fill="none" stroke="#064e3b" stroke-width="8" stroke-linecap="round"/>
  <path d="m112 117 8 8 18-22" fill="none" stroke="#ecfdf5" stroke-width="8" stroke-linecap="round" stroke-linejoin="round"/>
</svg>
